<svg width="68" height="67" viewBox="0 0 68 67" fill="none" xmlns="http://www.w3.org/2000/svg">
<g id="FigmaLogo">
<path id="Vector" d="M42.8984 42.3984C47.8129 42.3984 51.7969 38.4145 51.7969 33.5C51.7969 28.5855 47.8129 24.6016 42.8984 24.6016C37.984 24.6016 34 28.5855 34 33.5C34 38.4145 37.984 42.3984 42.8984 42.3984Z" stroke="black" stroke-width="2" stroke-linecap="round" stroke-linejoin="round"/>
<path id="Vector_2" d="M34 24.6016V6.80493H25.1016C22.7416 6.80493 20.4782 7.74244 18.8094 9.41122C17.1406 11.08 16.2031 13.3434 16.2031 15.7034C16.2031 18.0634 17.1406 20.3267 18.8094 21.9955C20.4782 23.6643 22.7416 24.6018 25.1016 24.6018L34 24.6016Z" stroke="black" stroke-width="2" stroke-linecap="round" stroke-linejoin="round"/>
<path id="Vector_3" d="M34 42.3982V24.6016H25.1016C22.7416 24.6016 20.4782 25.5391 18.8094 27.2079C17.1406 28.8766 16.2031 31.14 16.2031 33.5C16.2031 35.86 17.1406 38.1234 18.8094 39.7921C20.4782 41.4609 22.7416 42.3984 25.1016 42.3984L34 42.3982Z" stroke="black" stroke-width="2" stroke-linecap="round" stroke-linejoin="round"/>
<path id="Vector_4" d="M34 24.6016V6.80493H42.8984C45.2584 6.80493 47.5218 7.74244 49.1906 9.41122C50.8594 11.08 51.7969 13.3434 51.7969 15.7034C51.7969 18.0634 50.8594 20.3267 49.1906 21.9955C47.5218 23.6643 45.2584 24.6018 42.8984 24.6018L34 24.6016Z" stroke="black" stroke-width="2" stroke-linecap="round" stroke-linejoin="round"/>
<path id="Vector_5" d="M34 42.3982V51.2967C34 53.0567 33.4782 54.7771 32.5004 56.2405C31.5226 57.7038 30.1329 58.8444 28.5069 59.5179C26.881 60.1914 25.0918 60.3677 23.3656 60.0243C21.6395 59.681 20.0539 58.8335 18.8095 57.5891C17.565 56.3446 16.7175 54.759 16.3741 53.0329C16.0308 51.3068 16.207 49.5176 16.8805 47.8916C17.554 46.2656 18.6945 44.8759 20.1578 43.8981C21.6212 42.9203 23.3416 42.3984 25.1016 42.3984L34 42.3982Z" stroke="black" stroke-width="2" stroke-linecap="round" stroke-linejoin="round"/>
</g>
</svg>
